<svg xmlns="http://www.w3.org/2000/svg" viewBox="0 0 249.8 164.1"><defs><style>.cls-1{fill:#97ecf1;}.cls-2{fill:#160623;}.cls-3{fill:#e45e45;}.cls-4{fill:none;stroke:#ffba15;stroke-miterlimit:10;stroke-width:2px;}.cls-5{fill:#ef9ca4;}.cls-6{fill:#ffba15;}</style></defs><g id="Capa_2" data-name="Capa 2"><g id="OBJECTS"><rect class="cls-1" x="96.4" y="47.7" width="96.4" height="96.35"/><path class="cls-2" d="M154.1,47.7a49.2,49.2,0,0,0-4.9,21.6,50.4,50.4,0,0,0,43.6,49.9V47.7Z"/><circle class="cls-3" cx="199.5" cy="58.5" r="50.3" transform="matrix(0.16, -0.99, 0.99, 0.16, 109.29, 245.81)"/><circle class="cls-4" cx="192.8" cy="51.3" r="50.3"/><path class="cls-5" d="M90.8,156.6a108.3,108.3,0,0,1-42-11.8C21,130,6.9,104.9,6.9,70.2H4.7c0,44.3,23.4,66.1,43.1,76.5a109.2,109.2,0,0,0,27.6,9.9H20.3a5.2,5.2,0,1,0,0,2.2H90.7Z"/><path class="cls-3" d="M89.7,152.5v11.6h11.6V152.5Zm9.4,9.4H91.8v-7.3h7.3Z"/><path class="cls-3" d="M0,71.2H11.6V59.6H0Zm2.2-9.4H9.4v7.3H2.2Z"/><path class="cls-2" d="M59.3,39.5A24.1,24.1,0,0,1,69.4,72l7.7,4.1A32.8,32.8,0,0,0,19,45.6l7.7,4A24.1,24.1,0,0,1,59.3,39.5Z"/><path class="cls-6" d="M57.1,35.1A24.3,24.3,0,0,1,67.3,67.7l7.6,4A32.8,32.8,0,0,0,16.8,41.3l7.7,4A24.3,24.3,0,0,1,57.1,35.1Z"/></g></g></svg>