<svg xmlns="http://www.w3.org/2000/svg" viewBox="0 0 70 37.3"><defs><style>.cls-1{fill:#ff7f00;}</style></defs><g id="Capa_2" data-name="Capa 2"><g id="Diseños"><polygon class="cls-1" points="38.8 34.8 38.8 34.8 38.8 34.8 38.8 34.8"/><path class="cls-1" d="M38.8,34.8l-.8-.7c-.1-.1.1,0-.2-.2-3.8-3.7-4.9-9.6-5.1-15.7h0c0-.1-.1-.2-.1-.3h0C32.3,7.9,25.1,0,16.3,0S0,8.3,0,18.6v14a4.5,4.5,0,0,0,4,4.7H38.3a1.7,1.7,0,0,0,.5-2.4ZM20.3,23.3H12.5a.8.8,0,0,1-.7-1.1c1-2,2.9-5.9,3.9-7.8h0a.8.8,0,0,1,1.4,0L21,22.2A.8.8,0,0,1,20.3,23.3Z"/><polygon class="cls-1" points="31.2 2.5 31.2 2.5 31.2 2.5 31.2 2.5"/><path class="cls-1" d="M66,0H31.7c-.5.1-.8.7-.8,1.4a1.7,1.7,0,0,0,.3,1l.8.7.2.2C36,7.1,37.1,12.9,37.3,19h0c0,.1.1.2.1.4h0c.3,9.9,7.5,17.9,16.3,17.9S70,28.9,70,18.6V4.7A4.5,4.5,0,0,0,66,0ZM58.2,15.1l-3.9,7.8h0a.8.8,0,0,1-1.4,0L49,15.1a.8.8,0,0,1,.7-1.1h7.8A.8.8,0,0,1,58.2,15.1Z"/></g></g></svg>