<svg xmlns="http://www.w3.org/2000/svg" viewBox="0 0 152.4 28.6"><defs><style>.cls-1{font-size:6.89px;font-family:Montserrat-Regular, Montserrat;letter-spacing:0.2em;}.cls-1,.cls-11,.cls-16{fill:#e2e2e2;}.cls-2{letter-spacing:0.16em;}.cls-3{letter-spacing:0.19em;}.cls-4{letter-spacing:0.2em;}.cls-5{letter-spacing:0.19em;}.cls-6{letter-spacing:0.19em;}.cls-7{letter-spacing:0.19em;}.cls-8{letter-spacing:0.2em;}.cls-9{letter-spacing:0.19em;}.cls-10{letter-spacing:0em;}.cls-11{font-size:13.69px;font-family:JohnMayer, John Mayer;}.cls-12{letter-spacing:0.03em;}.cls-13{letter-spacing:0.02em;}.cls-14,.cls-15,.cls-17{fill:none;stroke:#e2e2e2;stroke-miterlimit:10;}.cls-14{stroke-width:0.43px;}.cls-15{stroke-width:0.47px;}.cls-17{stroke-width:0.43px;}</style></defs><g id="Capa_2" data-name="Capa 2"><g id="Design"><text class="cls-1" transform="translate(29.9 22.7)">N<tspan class="cls-2" x="7" y="0">A</tspan><tspan class="cls-3" x="13.1" y="0">T</tspan><tspan class="cls-4" x="18.3" y="0">URAL </tspan><tspan class="cls-5" x="46.4" y="0">L</tspan><tspan class="cls-6" x="51.8" y="0">U</tspan><tspan class="cls-7" x="58.6" y="0">X</tspan><tspan class="cls-8" x="64.4" y="0">U</tspan><tspan class="cls-9" x="71.2" y="0">R</tspan><tspan class="cls-8" x="77.5" y="0">Y</tspan><tspan x="83.3" y="0"> </tspan><tspan class="cls-3" x="86.4" y="0">L</tspan><tspan x="91.8" y="0">ODGE</tspan><tspan class="cls-10" x="118.7" y="0">S</tspan></text><text class="cls-11" transform="translate(29.6 13.9)">Cabañas <tspan class="cls-12" x="51.6" y="0">Don</tspan><tspan x="76" y="0"> </tspan><tspan class="cls-13" x="79" y="0">R</tspan><tspan x="88.4" y="0">iro</tspan></text><path class="cls-14" d="M14,28.3A14.1,14.1,0,0,1,14.1.2"/><path class="cls-14" d="M14,1.6h.2a12.7,12.7,0,0,1,3.2,25"/><polyline class="cls-14" points="2.6 15.7 9.4 10.4 16.6 15.7"/><path class="cls-15" d="M4.3,19a.8.8,0,0,1-.7-.9.8.8,0,0,1,.7-.9"/><path class="cls-14" d="M4.3,17.3a.7.7,0,0,1-.7-.7.7.7,0,0,1,.7-.8"/><path class="cls-14" d="M4.3,20.8a.8.8,0,0,1-.7-.8.7.7,0,0,1,.7-.7"/><path class="cls-14" d="M14.7,17.5a.8.8,0,0,1,.7.8.7.7,0,0,1-.7.7"/><path class="cls-14" d="M14.7,15.8a.7.7,0,0,1,.7.8.7.7,0,0,1-.7.7"/><path class="cls-14" d="M14.7,19.3a.7.7,0,0,1,.7.7.8.8,0,0,1-.7.8"/><line class="cls-14" x1="5.9" y1="16.5" x2="13.2" y2="16.5"/><line class="cls-14" x1="5.8" y1="18.3" x2="8.2" y2="18.3"/><line class="cls-14" x1="5.8" y1="20.1" x2="8.2" y2="20.1"/><line class="cls-14" x1="10.9" y1="18.3" x2="13.2" y2="18.3"/><line class="cls-14" x1="10.9" y1="20.1" x2="13.2" y2="20.1"/><path class="cls-14" d="M14.5,11.9l3.7-3.5A1.4,1.4,0,0,1,20,8.3a1,1,0,0,0,1,.3"/><path class="cls-14" d="M14,3.6h.2a10.9,10.9,0,0,1,0,21.8H14l3.1,3.1"/><path class="cls-16" d="M8.6,7.6c-1.3.1-1.4.2-1.5,1.5C7,7.8,6.8,7.7,5.6,7.6,6.8,7.5,7,7.4,7.1,6.1c.1,1.3.2,1.4,1.5,1.5"/><path class="cls-17" d="M20.6,14.9a1.3,1.3,0,0,1-.3,1c-.2.4-.6.4-.9.8s0,.8-.2,1.3A1.8,1.8,0,0,1,18,19"/><path class="cls-17" d="M22.5,14.9a1.7,1.7,0,0,1-.3,1.1c-.3.5-.7.7-1.1,1.2s0,.9,0,1.5a4.2,4.2,0,0,1-2,2.6c-1,.9-3.3,1.1-4.3,1.1"/></g></g></svg>