<svg xmlns="http://www.w3.org/2000/svg" viewBox="0 0 153.8 42"><defs><style>.cls-1{font-size:21.36px;font-family:Poppins-Bold, Poppins;font-weight:700;}.cls-1,.cls-2,.cls-3{fill:#e2e2e2;}.cls-3{stroke:#bcbcbc;stroke-linecap:round;stroke-linejoin:round;stroke-width:2.72px;}.cls-4{fill:#bcbcbc;}.cls-5{fill:#b7b7b7;}</style></defs><g id="Capa_2" data-name="Capa 2"><g id="Design"><text class="cls-1" transform="translate(43.7 28.4)">Food</text><text class="cls-1" transform="translate(98.2 28.4)">Book</text><g id="Logo"><circle class="cls-2" cx="26.4" cy="27.2" r="14.8"/><polygon class="cls-2" points="37.1 27.6 28.5 29.6 19.6 33.8 15.6 28.1 12.6 30.5 5.7 31.8 2.4 28.9 2.8 24.7 5.8 22.7 2.5 19.1 1.4 14 4 8.5 8.5 6.7 12.8 6.9 15.4 8.7 17.6 4.2 20.7 1.9 25.3 1.9 29.8 3.6 31.7 6 32.9 8.9 32.6 13.7 31.5 17.2 31.8 19.1 37.1 27.6"/><path class="cls-2" d="M14,7.6S7.1,19.9,18.1,23.7l1.2,1.5a6.1,6.1,0,0,0,5.1,4.7l-4.9,3.7-4.1-5.7L10,31.4l-4.9-.9L2,27.1l3.1-4.2L2.8,19.1l-.4-7L6.2,7l5.3-.5Z"/><path class="cls-3" d="M38.7,30.6c.9-4.9-10.8-2.9-19.6,3.7a23.6,23.6,0,0,0-3.8-6.5.3.3,0,0,0-.4,0,18.1,18.1,0,0,1-1.7,1.9,7.6,7.6,0,0,1-7.7,2A5,5,0,0,1,2,26.9a4.4,4.4,0,0,1,2.7-3.8l1.1-.4c.2,0-.1-.3-.2-.3L5,21.9a2.7,2.7,0,0,1-.8-.7,8.7,8.7,0,0,1-2.4-9A8.3,8.3,0,0,1,6.9,6.7a9.4,9.4,0,0,1,5-.1,7.5,7.5,0,0,1,3.9,2.8h.1A9.4,9.4,0,0,1,16.8,5,6.8,6.8,0,0,1,21,1.8a8.9,8.9,0,0,1,6.9.5,10.1,10.1,0,0,1,4.9,6.3,12.5,12.5,0,0,1-.7,8.3,7.7,7.7,0,0,1-.7,1.6c1.4,2.1,3,4.1,4.5,6.1l1.6,2a4.9,4.9,0,0,1,1.3,3.6,6.7,6.7,0,0,1-2.2,3.3,19.3,19.3,0,0,1-4.9,3.1c-12.1,5.2-11.8-.1-1.2-3.8"/><path class="cls-2" d="M23.6,6s4.5,2,2.5,8"/><path class="cls-4" d="M23.6,6a4.3,4.3,0,0,1,3.5,3.3,5.3,5.3,0,0,1,0,2.5,2.8,2.8,0,0,1-.4,1.2l-.6,1a4.9,4.9,0,0,1-.1-1.2V11.7a11.8,11.8,0,0,0-.4-2A9,9,0,0,0,23.6,6Z"/><path class="cls-2" d="M26.6,18.6s0,3.2,1.5,4.5"/><path class="cls-4" d="M26.6,18.6c.3.8.5,1.6.7,2.3l.8,2.2a1.9,1.9,0,0,1-1-.8,3.7,3.7,0,0,1-.5-1.1A3.9,3.9,0,0,1,26.6,18.6Z"/><path class="cls-2" d="M20.9,19.5a5.4,5.4,0,0,1,2.5,4"/><path class="cls-4" d="M20.9,19.5a2.6,2.6,0,0,1,2,1.5,4.3,4.3,0,0,1,.5,1.2,2.9,2.9,0,0,1,0,1.3l-1.2-2.1Z"/><path class="cls-2" d="M17.6,22.7a6.5,6.5,0,0,0,3.1,3.5"/><path class="cls-4" d="M17.6,22.7l1.6,1.7c.4.6,1,1.1,1.5,1.8A3.7,3.7,0,0,1,18.5,25,3.6,3.6,0,0,1,17.6,22.7Z"/><path class="cls-2" d="M8.2,10.5s-3.1,5.1.3,8.6"/><path class="cls-4" d="M8.2,10.5a37.1,37.1,0,0,0-.5,4.4,13.4,13.4,0,0,0,.1,2,11.1,11.1,0,0,0,.7,2.2,4.5,4.5,0,0,1-1.8-1.8,5,5,0,0,1-.6-2.4,10.2,10.2,0,0,1,.6-2.5A5.5,5.5,0,0,1,8.2,10.5Z"/><path class="cls-2" d="M25.2,36.5l-.3.3c-.1.1-.2.2-.2.3s0,.3.2.4.1.1.2.1h.5"/><path class="cls-5" d="M25,36.3a1,1,0,0,0-.5.4.9.9,0,0,0-.1.7c.1.1.1.2.3.3H25a1.6,1.6,0,0,0,.7,0h.2c0-.1.1-.2,0-.3s-.2-.2-.3-.2H25c-.1,0,0,.1,0,0h0a.1.1,0,0,1,.1-.1c0-.1-.1,0,0,0h.1l.2-.2a.3.3,0,0,0,0-.4Z"/></g></g></g></svg>