<svg xmlns="http://www.w3.org/2000/svg" viewBox="0 0 149.5 32.2"><defs><style>.cls-1{isolation:isolate;}.cls-2{fill:#e2e2e2;}.cls-3{fill:#cecece;}</style></defs><g id="Capa_2" data-name="Capa 2"><g id="Grid"><g id="Gameplace" class="cls-1"><g class="cls-1"><path class="cls-2" d="M46.6,21.8a8.8,8.8,0,0,1-2.9-.5,6.8,6.8,0,0,1-2.3-1.4,8,8,0,0,1-1.5-2.1,8.7,8.7,0,0,1-.5-2.8,7.6,7.6,0,0,1,.5-2.7,8,8,0,0,1,1.5-2.1,7,7,0,0,1,2.3-1.5,9.2,9.2,0,0,1,2.9-.4,8.1,8.1,0,0,1,3.3.6,6.1,6.1,0,0,1,2.4,1.7L50,12.8a3.9,3.9,0,0,0-1.5-1.1,3.1,3.1,0,0,0-1.7-.4l-1.5.3a2.4,2.4,0,0,0-1.2.7,4.7,4.7,0,0,0-.7,1.2,4,4,0,0,0-.3,1.5,3.3,3.3,0,0,0,.3,1.5,3.5,3.5,0,0,0,.7,1.2,2.5,2.5,0,0,0,1.2.8,3.3,3.3,0,0,0,1.5.3,4.5,4.5,0,0,0,1.6-.3l1.6-.9,2,2.6a9.6,9.6,0,0,1-2.5,1.2A10.1,10.1,0,0,1,46.6,21.8Zm2.2-2.1V14.8H52v5.4Z"/><path class="cls-2" d="M57.4,21.7a4,4,0,0,1-2-.4,2.8,2.8,0,0,1-1.3-1.1,2.8,2.8,0,0,1,0-3.2,2.4,2.4,0,0,1,1.5-1,6,6,0,0,1,2.5-.4h2.4v1.8H58.6a1.7,1.7,0,0,0-1.2.3,1.1,1.1,0,0,0-.3.8.9.9,0,0,0,.3.7,1.8,1.8,0,0,0,2,0,1.3,1.3,0,0,0,.7-.9l.5,1.3a2.6,2.6,0,0,1-1.1,1.6A4.1,4.1,0,0,1,57.4,21.7Zm3-.1V19.7l-.3-.5V15.7a1.7,1.7,0,0,0-.5-1.3A2.4,2.4,0,0,0,58,14l-1.5.2a3.5,3.5,0,0,0-1.2.7l-1.2-2.4a5.3,5.3,0,0,1,2-.9l2.4-.3a5.9,5.9,0,0,1,3.8,1.1,4.4,4.4,0,0,1,1.4,3.5v5.7Z"/><path class="cls-2" d="M79.1,11.3a4.1,4.1,0,0,1,2.1.5,3.2,3.2,0,0,1,1.4,1.4,5,5,0,0,1,.5,2.6v5.8H79.6V16.4a2.2,2.2,0,0,0-.4-1.6,1.6,1.6,0,0,0-1.1-.5l-.9.2a1.9,1.9,0,0,0-.7.8,3.7,3.7,0,0,0-.2,1.2v5.1H72.8V16.4a2.8,2.8,0,0,0-.4-1.6,1.7,1.7,0,0,0-1.2-.5l-.9.2a1.7,1.7,0,0,0-.6.8,2.2,2.2,0,0,0-.2,1.2v5.1H65.9V11.5h3.4v2.8l-.7-.8a5,5,0,0,1,1.5-1.7,5.4,5.4,0,0,1,2.2-.5,4,4,0,0,1,2.4.7,3.8,3.8,0,0,1,1.4,2.2l-1.2-.3A4.4,4.4,0,0,1,76.6,12,4.1,4.1,0,0,1,79.1,11.3Z"/><path class="cls-2" d="M90.8,21.7a6.2,6.2,0,0,1-3.1-.7,4.6,4.6,0,0,1-2.1-1.8,5,5,0,0,1-.7-2.7,5,5,0,0,1,.7-2.7,4.4,4.4,0,0,1,2-1.8,5.3,5.3,0,0,1,2.8-.7,6,6,0,0,1,2.7.6,4.4,4.4,0,0,1,2,1.8,5.1,5.1,0,0,1,.7,2.8v.9h-8V15.5h6.1l-1.4.6a1.6,1.6,0,0,0-.2-1.2,1.9,1.9,0,0,0-.7-.8,2.4,2.4,0,0,0-1.2-.3,2.3,2.3,0,0,0-1.1.3,1.9,1.9,0,0,0-.7.8,2.1,2.1,0,0,0-.3,1.2v.5a2.8,2.8,0,0,0,.3,1.3,2.3,2.3,0,0,0,.9.8,3.2,3.2,0,0,0,1.4.3l1.3-.2a3,3,0,0,0,1-.7l1.9,2a5.7,5.7,0,0,1-1.8,1.2A6.2,6.2,0,0,1,90.8,21.7Z"/><path class="cls-2" d="M97.5,25.2V11.5h3.3v5l.2,3.4v5.3Zm6.3-3.5a5.1,5.1,0,0,1-2.2-.5,3.7,3.7,0,0,1-1.4-1.8,7.8,7.8,0,0,1-.4-2.9,7.8,7.8,0,0,1,.4-2.9,2.7,2.7,0,0,1,1.4-1.7,3.8,3.8,0,0,1,2.2-.6,4.7,4.7,0,0,1,4.3,2.4,6,6,0,0,1,0,5.6,3.9,3.9,0,0,1-1.8,1.8A5.1,5.1,0,0,1,103.8,21.7Zm-.7-2.8a1.7,1.7,0,0,0,1-.3,1.6,1.6,0,0,0,.8-.8,3,3,0,0,0,0-2.6,1.6,1.6,0,0,0-.8-.8,1.7,1.7,0,0,0-1-.3,2,2,0,0,0-1.1.3,2,2,0,0,0-.8.8,3,3,0,0,0,0,2.6,2,2,0,0,0,.8.8A2,2,0,0,0,103.1,18.9Z"/><path class="cls-2" d="M110.4,21.6V7.7h3.5V21.6Z"/><path class="cls-2" d="M119.4,21.7a4,4,0,0,1-2-.4,2.8,2.8,0,0,1-1.3-1.1,2.9,2.9,0,0,1-.4-1.6,2.9,2.9,0,0,1,.4-1.6,2.4,2.4,0,0,1,1.5-1,6.2,6.2,0,0,1,2.5-.4h2.4v1.8h-1.9a2.1,2.1,0,0,0-1.2.3,1.1,1.1,0,0,0-.3.8.9.9,0,0,0,.3.7,1.7,1.7,0,0,0,1,.3,2.3,2.3,0,0,0,1.1-.3,2.2,2.2,0,0,0,.7-.9l.4,1.3a2.5,2.5,0,0,1-1,1.6A4.8,4.8,0,0,1,119.4,21.7Zm3-.1V19.7l-.2-.5V15.7a1.8,1.8,0,0,0-.6-1.3A2.2,2.2,0,0,0,120,14l-1.5.2a3.5,3.5,0,0,0-1.2.7l-1.2-2.4a6.1,6.1,0,0,1,2-.9l2.4-.3a5.9,5.9,0,0,1,3.8,1.1,4.4,4.4,0,0,1,1.4,3.5v5.7Z"/><path class="cls-2" d="M133.2,21.7a7.3,7.3,0,0,1-3-.6,6.1,6.1,0,0,1-2-1.9,5,5,0,0,1,0-5.4,4.9,4.9,0,0,1,2-1.8,6,6,0,0,1,3-.7,5.8,5.8,0,0,1,3,.7,4.6,4.6,0,0,1,1.8,2.1l-2.8,1.4a2.1,2.1,0,0,0-3.1-1.1,1.6,1.6,0,0,0-.8.8,2.5,2.5,0,0,0-.3,1.3,2.8,2.8,0,0,0,.3,1.3,1.6,1.6,0,0,0,.8.8,2.1,2.1,0,0,0,3.1-1.1l2.8,1.4a4.6,4.6,0,0,1-1.8,2.1A5.8,5.8,0,0,1,133.2,21.7Z"/><path class="cls-2" d="M144.5,21.7a6.6,6.6,0,0,1-3.2-.7,4.9,4.9,0,0,1-2-1.8,5,5,0,0,1,0-5.4,4.1,4.1,0,0,1,1.9-1.8,5.7,5.7,0,0,1,2.9-.7,6,6,0,0,1,2.7.6,4.9,4.9,0,0,1,2,1.8,5.1,5.1,0,0,1,.7,2.8V17a.6.6,0,0,1-.1.4h-7.9V15.5h6.1l-1.4.6a3.7,3.7,0,0,0-.2-1.2,2,2,0,0,0-.8-.8,2.2,2.2,0,0,0-2.2,0,1.4,1.4,0,0,0-.7.8,2.1,2.1,0,0,0-.3,1.2v.5a2.8,2.8,0,0,0,.3,1.3,1.8,1.8,0,0,0,.9.8,2.9,2.9,0,0,0,1.4.3l1.3-.2a3,3,0,0,0,1-.7l1.9,2a5.7,5.7,0,0,1-1.8,1.2A6.6,6.6,0,0,1,144.5,21.7Z"/></g></g><path id="Trazado_17" data-name="Trazado 17" class="cls-3" d="M15.2,12.4,0,3.6V23.4l15.2,8.8V19L7.6,14.6V19l3.8,2.2v4.4L3.8,21.2v-11l11.4,6.5Z"/><path id="Trazado_18" data-name="Trazado 18" class="cls-2" d="M4.5,0,15.2,6.2v4L.9,2Z"/><path id="Trazado_19" data-name="Trazado 19" class="cls-2" d="M31.4,2,17.1,10.3V6.2L27.8,0Z"/><path id="Trazado_20" data-name="Trazado 20" class="cls-2" d="M20.9,14.6l7.6-4.4v4.4l-3.8,2.2v4.4l7.6-4.4V3.6L17.1,12.4V32.2L20.9,30Z"/></g></g></svg>