<svg xmlns="http://www.w3.org/2000/svg" viewBox="0 0 150 32.2"><defs><style>.cls-1,.cls-2{isolation:isolate;}.cls-2{font-size:18.62px;font-family:Montserrat-ExtraBold, Montserrat;font-weight:800;}.cls-2,.cls-7{fill:#e2e2e2;}.cls-3{letter-spacing:0.01em;}.cls-4{letter-spacing:0.01em;}.cls-5{letter-spacing:-0.01em;}.cls-6{fill:#cecece;}</style></defs><g id="Capa_2" data-name="Capa 2"><g id="Grid"><g id="Grupo_16" data-name="Grupo 16"><g id="Gameplace" class="cls-1"><text class="cls-2" transform="translate(38.7 21.6)">Ga<tspan class="cls-3" x="26" y="0">m</tspan><tspan x="45.6" y="0">epl</tspan><tspan class="cls-4" x="76.4" y="0">a</tspan><tspan class="cls-5" x="88.2" y="0">c</tspan><tspan x="99.3" y="0">e</tspan></text></g><path id="Trazado_17" data-name="Trazado 17" class="cls-6" d="M15.2,12.4,0,3.6V23.4l15.2,8.8V19L7.6,14.6V19l3.8,2.2v4.4L3.8,21.2v-11l11.4,6.5Z"/><path id="Trazado_18" data-name="Trazado 18" class="cls-7" d="M4.5,0,15.2,6.2v4L.9,2Z"/><path id="Trazado_19" data-name="Trazado 19" class="cls-7" d="M31.4,2,17.1,10.3V6.2L27.8,0Z"/><path id="Trazado_20" data-name="Trazado 20" class="cls-7" d="M20.9,14.6l7.6-4.4v4.4l-3.8,2.2v4.4l7.6-4.4V3.6L17.1,12.4V32.2L20.9,30Z"/></g></g></g></svg>