<svg xmlns="http://www.w3.org/2000/svg" viewBox="0 0 72.2 40.9"><defs><style>.cls-1{fill:#e2e2e2;}</style></defs><g id="Capa_2" data-name="Capa 2"><g id="Design"><path class="cls-1" d="M17.7,6.3V18.9H16q-1.6,0-1.8-1.2V13H10.4v5.9H8.6c-1.1,0-1.7-.4-1.7-1.2V5H8.7a1.6,1.6,0,0,1,1.2.4,1.4,1.4,0,0,1,.5.9v4.4h3.8V5H16a1.6,1.6,0,0,1,1.2.4A1.1,1.1,0,0,1,17.7,6.3Z"/><path class="cls-1" d="M35.5,8.2a1.4,1.4,0,0,1-.6,1.1h-.2l-.2.2a3.3,3.3,0,0,0-1,2.4h0v5.3c0,1-.5,1.6-1.7,1.7H30V18a6.4,6.4,0,0,1-3.4.9,6.8,6.8,0,0,1-4.9-2A6.7,6.7,0,0,1,19.6,12a6.7,6.7,0,0,1,2.1-5,7,7,0,0,1,9.8,0c.1.1.1.1.1.2h.2l.2-.2a6.1,6.1,0,0,1,1.6-1.2,7.9,7.9,0,0,1,1.5,1.2A1.2,1.2,0,0,1,35.5,8.2ZM29,14.4A3.3,3.3,0,0,0,30,12a3,3,0,0,0-1-2.4,3.3,3.3,0,0,0-2.4-1,3,3,0,0,0-2.4,1,3,3,0,0,0-1,2.4,3.2,3.2,0,0,0,3.4,3.3A3.6,3.6,0,0,0,29,14.4Z"/><path class="cls-1" d="M5,22.2a9.2,9.2,0,0,1,5-1.4,9.8,9.8,0,0,1,7.2,3,9.7,9.7,0,0,1,2.9,7.1A9.9,9.9,0,0,1,17.2,38,9.7,9.7,0,0,1,10,40.9,9.7,9.7,0,0,1,2.9,38,10.3,10.3,0,0,1,0,31.6v-.7H0V5H2.5A2.2,2.2,0,0,1,5,7.5ZM6.6,34.4A4.8,4.8,0,0,0,10,35.8a4.8,4.8,0,0,0,3.5-1.4,4.7,4.7,0,0,0,1.4-3.5,4.6,4.6,0,0,0-1.4-3.5A4.8,4.8,0,0,0,10,26a4.8,4.8,0,0,0-3.4,1.4,4.7,4.7,0,0,0-1.5,3.5A4.9,4.9,0,0,0,6.6,34.4Z"/><path class="cls-1" d="M23.7,20.8a1.6,1.6,0,0,1,1.1.5,1.5,1.5,0,0,1,.4,1.1v15H23.6c-1,0-1.6-.5-1.6-1.4V20.8Z"/><path class="cls-1" d="M34.5,23.1a6.4,6.4,0,0,1,5-2.3,6.7,6.7,0,0,1,5,2.3,7.7,7.7,0,0,1,1.9,4.3v10H44.6c-1.1,0-1.7-.7-1.7-1.9V27.8c-.1,0-.1,0-.1-.1a3.2,3.2,0,0,0-.9-1.7,3.1,3.1,0,0,0-2.4-1.2A3.2,3.2,0,0,0,37,26a4.1,4.1,0,0,0-1,2.7v6.8a1.7,1.7,0,0,1-1.8,1.9H32.4V28.6a5.3,5.3,0,0,1,.1-1.2A7.8,7.8,0,0,1,34.5,23.1Z"/><path class="cls-1" d="M64.8,23a1.4,1.4,0,0,1,.4,1.2,1.3,1.3,0,0,1-.6,1.1c-.1.1-.2.1-.2.2l-.2.2a3.4,3.4,0,0,0-1.1,2.5v5.5a3.4,3.4,0,0,1-.2,1.4,7.4,7.4,0,0,1-.4,1.4l-.7,1.2a4.4,4.4,0,0,1-.8,1,5.9,5.9,0,0,1-2.5,1.7,7.3,7.3,0,0,1-3,.5l-2.2-.2a6.7,6.7,0,0,1-2.1-1,5.4,5.4,0,0,1-1.5-1.5,5.9,5.9,0,0,1-1.1-1.9l-.2-.7h2.9a2.3,2.3,0,0,1,1,.4,2.5,2.5,0,0,0,1.2,1.1,4.1,4.1,0,0,0,1.9.5,4.5,4.5,0,0,0,1.6-.3,3.5,3.5,0,0,0,1.3-.8,4,4,0,0,0,1.1-2,6.6,6.6,0,0,1-3.7,1,7,7,0,0,1-5.2-2.1,7.4,7.4,0,0,1,0-10.5,7,7,0,0,1,5.2-2.1,7.3,7.3,0,0,1,5.2,2.1.3.3,0,0,0,.1.2l.2.2a.1.1,0,0,0,.1-.1l.2-.2a10.9,10.9,0,0,1,1.7-1.3L64.8,23Zm-6.6,7.7a3.6,3.6,0,0,0,1.1-2.6,3.6,3.6,0,0,0-1.1-2.5,3.5,3.5,0,0,0-2.5-1,3.5,3.5,0,0,0-2.6,1,3.5,3.5,0,0,0-1,2.5,3.4,3.4,0,0,0,1,2.6,3.6,3.6,0,0,0,2.6,1.1A3.4,3.4,0,0,0,58.2,30.7Z"/><path class="cls-1" d="M28.8,24.2a1.8,1.8,0,0,1-1.2-.5,1.7,1.7,0,0,1-.5-1.2,1.7,1.7,0,0,1,1.7-1.7,1.7,1.7,0,0,1,1.2.5,1.8,1.8,0,0,1,.5,1.2,1.7,1.7,0,0,1-1.7,1.7Z"/><path class="cls-1" d="M30.5,25.4V35.8a1.5,1.5,0,0,1-1.6,1.6H27.1V26.2c0-.5.6-.8,1.7-.8Z"/><path class="cls-1" d="M72.2,8.4a9.4,9.4,0,0,0-2.8-5.5,9.5,9.5,0,0,0-7-2.9,9.7,9.7,0,0,0-7,2.9l-.4.4-.2-.2c0-.1-.1-.1-.1-.2a10,10,0,0,0-14.1,0l-.3.3L40,2.9a7.2,7.2,0,0,0-2.2-1.7,11.8,11.8,0,0,0-2.2,1.7h0A1.7,1.7,0,0,0,35,4.5,1.9,1.9,0,0,0,35.8,6l.3.2.3.3a4.7,4.7,0,0,1,1.4,3.2v9.4l1.7-.2a6.7,6.7,0,0,1,3.4.9V8.7a5.7,5.7,0,0,1,1.3-2.1,4.6,4.6,0,0,1,3.2-1.5,4.7,4.7,0,0,1,3.7,1.4,4.9,4.9,0,0,1,1.4,3.4v9.6a10.1,10.1,0,0,1,3.1-.5,5.8,5.8,0,0,1,1.9.2V9.9A5.3,5.3,0,0,1,59,6.5a4.4,4.4,0,0,1,1.6-1,3.9,3.9,0,0,1,1.8-.4,4.6,4.6,0,0,1,3.4,1.4,4.6,4.6,0,0,1,1.3,2.2V38.5c0,1.5.9,2.3,2.5,2.4h2.6V8.4Z"/></g></g></svg>