<svg xmlns="http://www.w3.org/2000/svg" viewBox="0 0 300 38.2"><defs><style>.cls-1{fill:#fff;}.cls-2{fill:#ff7f00;}</style></defs><g id="Capa_2" data-name="Capa 2"><g id="Diseños"><g id="Principal"><path class="cls-1" d="M115.9,0V30h8.9V0Z"/><path class="cls-1" d="M139.5,0V3c2.2-2.7,5.6-3,8.8-2.9s5.8,1.2,7.2,3.5c2-2.9,6.4-3.7,9.9-3.5,5.6.2,10.2,3.5,10.1,13V30h-8.9V13.1c0-3.6-1.7-4.9-3.7-4.9s-5.3,1.4-5.4,4.7V30h-8.8V13.1c0-3.6-1.7-4.9-3.7-4.9a4.8,4.8,0,0,0-5,4.8V30h-9.3V0Z"/><path class="cls-1" d="M210.8,18.4H189.3a6.9,6.9,0,0,0,6.4,4.2,6.6,6.6,0,0,0,5-2.1h9.5c-2.3,6.7-8.6,9.6-15,9.5s-15.1-4.9-15.1-15.1S188,0,195.8.1s15.3,4.6,15.3,14.8A19.8,19.8,0,0,1,210.8,18.4Zm-9.2-6.9a6.3,6.3,0,0,0-12,0Z"/><path class="cls-1" d="M224.1,0V3c2.1-2.7,5.7-2.9,9-2.9,8.5.1,10.8,5.9,10.7,13.4V30h-8.9V13.5c0-4-2.2-5.8-4.6-5.8a5.9,5.9,0,0,0-5.7,6V30h-9.3V0Z"/><path class="cls-1" d="M265.9,0V7.9h-6.2V19.2c0,2.6,1.9,3.5,4,3.5a10.7,10.7,0,0,0,2.5-.3l.3,7.1a29,29,0,0,1-4.8.4c-6.7.1-10.8-3-10.8-10.7l.3-11.3H247V0"/><path class="cls-1" d="M291.3,3.1V0H300V30h-8.7V27c-2.1,2.6-5,3-7.9,3-9.5,0-14.4-7.3-14.4-15.5S273.9.1,283.6.1C286.5.1,289.4.6,291.3,3.1Zm0,11.7a7,7,0,0,0-6.8-7.2c-4.5,0-6.7,3.4-6.7,7.1S280,22,284.5,22A7,7,0,0,0,291.3,14.8Z"/><path class="cls-1" d="M89.1,26.8V38.1H80.5V0h8.6V3c2-2.6,5-3,7.8-3,9.5,0,14.4,7.2,14.4,15.3S106.5,30,96.8,30A10.2,10.2,0,0,1,89.1,26.8Zm0-11.8a6.9,6.9,0,0,0,6.8,7.1c4.4,0,6.6-3.5,6.6-7s-2.2-7.2-6.6-7.2A6.9,6.9,0,0,0,89.1,15Z"/><polygon class="cls-2" points="39.7 35.6 39.7 35.6 39.7 35.6 39.7 35.6"/><path class="cls-2" d="M39.7,35.6l-.8-.7c-.1-.1.1,0-.2-.2-3.9-3.7-5.1-9.8-5.3-16h0v-.3h0C33.1,8.2,25.7,0,16.7,0S0,8.6,0,19.1V33.4a4.6,4.6,0,0,0,4,4.8H39.2a1.6,1.6,0,0,0,.9-1.4A2.1,2.1,0,0,0,39.7,35.6ZM20.8,23.9h-8a.8.8,0,0,1-.7-1.2l4-7.9h0a.8.8,0,0,1,1.4,0l4,7.9A.8.8,0,0,1,20.8,23.9Z"/><polygon class="cls-2" points="32 2.6 32 2.6 32 2.6 32 2.6"/><path class="cls-2" d="M67.6,0H32.4a1.7,1.7,0,0,0-.8,1.4A1.5,1.5,0,0,0,32,2.6l.7.7.2.2c4,3.8,5.1,9.8,5.3,16h0v.3h0c.4,10.1,7.7,18.3,16.7,18.3s16.8-8.6,16.8-19.1V4.8A4.6,4.6,0,0,0,67.6,0ZM59.5,15.5c-.9,2-2.9,6-3.9,7.9h0a.9.9,0,0,1-1.5,0l-3.9-7.9a.8.8,0,0,1,.7-1.2h7.9A.8.8,0,0,1,59.5,15.5Z"/></g></g></g></svg>