<svg xmlns="http://www.w3.org/2000/svg" viewBox="0 0 1596.5 252.7"><defs><style>.cls-1{fill:#fff;}.cls-2{fill:#1949f9;}</style></defs><g id="Capa_2" data-name="Capa 2"><g id="Diseños"><g id="Informática"><path class="cls-1" d="M616.9.1V159.6h47.2V.1Z"/><path class="cls-1" d="M742.6.1V16C753.8,1.8,772.1.1,789.2.4s30.6,6.5,38,18.6C838.1,3.9,861.5-.5,880.1.4c30.1,1.1,54.2,18.8,53.6,69.3v89.9H886.8V70c0-19.2-9.2-26.3-19.8-26.6s-28.6,7.7-28.9,25.4v90.8H791.2V70c0-19.2-9.1-26.3-19.7-26.6s-26.6,8-26.6,26v90.2H695.7V.1Z"/><path class="cls-1" d="M1121.6,97.7H1007.1c5.6,14.7,20.1,22.1,34.2,22.4,10.4,0,20.1-3.5,26.9-10.9h50.4c-12.4,35.4-46,50.8-79.6,50.2-40.4-.9-80.5-26-80.5-80S1000.3.1,1041.9.4s81.4,24.7,81.4,79A98,98,0,0,1,1121.6,97.7Zm-49-36.3c-4.4-15.9-17.4-23.3-32.4-23.3s-26.6,7.7-31.3,23.3Z"/><path class="cls-1" d="M1192.6.1V16C1203.8,1.8,1223,.4,1240.1.4c45.5.5,57.5,31.5,57.2,71.3v87.9h-47.2V72c0-21.5-12-31.2-24.7-31.2S1195,52.6,1195,72.9v86.7h-49.3V.1Z"/><path class="cls-1" d="M1415,.1V41.9h-33.3v60.4c0,14,10.3,18.3,21.5,18.3a72.2,72.2,0,0,0,13.3-1.4L1418,157a172.1,172.1,0,0,1-25.4,2.3c-35.7.3-57.2-16-57.2-57l1.1-60-22.1-.4V.1"/><path class="cls-1" d="M1550.1,16.6V.1h46.3V159.6h-46.3V143.7c-10.9,13.6-26.6,16-41.9,16-50.7,0-77-38.7-76.7-82.6S1457.4.4,1509,.4C1524.6.4,1539.8,3.3,1550.1,16.6Zm0,62.2c0-21.2-16.2-38.6-36.3-38.6-23.6,0-35.4,18.6-35.7,38s11.8,39,35.7,39C1533.9,117.2,1550.1,100.1,1550.1,78.8Z"/><path class="cls-1" d="M474.1,142.6V203H428.3V0h45.8V15.7C485,2.4,500.5,0,515.8,0c50.4,0,76.5,38.1,76.3,81.3s-25.6,78.4-76.9,78.4C499.6,159.7,484.7,154.5,474.1,142.6Zm0-63c0,20.9,16.1,38,36.1,38,23.5,0,35.2-18.6,35.5-37.4S534,41.8,510.2,41.8C490.2,41.8,474.1,58.7,474.1,79.6Z"/><path class="cls-2" d="M211.2,189.7h0Z"/><path class="cls-2" d="M211.3,189.7a50,50,0,0,0-4.1-3.9l-1.2-1.2c-21-19.9-27-51.9-28.1-85.1h0a9.1,9.1,0,0,0-.1-1.7h0C176,43.5,136.9.2,89,.2S0,45.6,0,101.7v76.1c0,13.7,9.6,24.9,21.5,25.4H200.7c2.7,0,6,0,8-.6s4.5-4,4.5-7.4A8.9,8.9,0,0,0,211.3,189.7ZM110.5,127H68.3a4.2,4.2,0,0,1-3.8-6.1c5.2-10.6,15.8-31.7,21.1-42.3h0a4.3,4.3,0,0,1,7.6,0l21.1,42.3A4.2,4.2,0,0,1,110.5,127Z"/><path class="cls-2" d="M170.1,13.7Z"/><path class="cls-2" d="M359.8.2H180.6c-2.7,0-6-.1-7.9.5s-4.6,4.1-4.6,7.5a8.8,8.8,0,0,0,2,5.5c1,1.1,2.8,2.8,4,3.9l1.2,1.1c21.1,19.9,27,51.9,28.1,85.1h0a9.7,9.7,0,0,1,.1,1.7h0c1.8,54.2,40.9,97.5,88.9,97.5s88.9-45.5,88.9-101.5V25.6C381.3,11.8,371.7.6,359.8.2ZM316.9,82.5l-21.2,42.2h0a4.2,4.2,0,0,1-7.6,0L267,82.5a4.3,4.3,0,0,1,3.8-6.2H313A4.3,4.3,0,0,1,316.9,82.5Z"/><path class="cls-2" d="M1134.5,195v57h-9.4V195Z"/><path class="cls-2" d="M1179.1,208.3a15.9,15.9,0,0,1,6.6,6.5,21.4,21.4,0,0,1,2.4,10.5V252h-9.3V226.7q0-6-3-9.3a12.4,12.4,0,0,0-16.6,0c-2.1,2.2-3.1,5.3-3.1,9.3V252h-9.3V206.8h9.3V212a16.3,16.3,0,0,1,5.9-4.4,19.4,19.4,0,0,1,7.6-1.5A19.9,19.9,0,0,1,1179.1,208.3Z"/><path class="cls-2" d="M1218.9,214.4h-8.3V252h-9.5V214.4h-5.3v-7.6h5.3v-3.2q0-7.8,4.2-11.4c2.7-2.3,7.1-3.5,13-3.5v7.8c-2.9,0-4.9.5-6,1.6s-1.7,2.9-1.7,5.5v3.2h8.3Z"/><path class="cls-2" d="M1235.2,249.8a21.3,21.3,0,0,1-8.1-8.2,25.3,25.3,0,0,1-2.9-12.2,24.9,24.9,0,0,1,3-12.3,21.1,21.1,0,0,1,8.3-8.2,25.8,25.8,0,0,1,23.4,0,21.1,21.1,0,0,1,8.3,8.2,25.4,25.4,0,0,1-.1,24.5,21.4,21.4,0,0,1-8.4,8.2,24.1,24.1,0,0,1-11.9,2.9A22.7,22.7,0,0,1,1235.2,249.8Zm18.4-6.9a13.4,13.4,0,0,0,5.1-5.2,16.7,16.7,0,0,0,2-8.3,18,18,0,0,0-1.9-8.4,13.6,13.6,0,0,0-5-5.1,14.2,14.2,0,0,0-6.7-1.7,13.9,13.9,0,0,0-6.7,1.7,12.7,12.7,0,0,0-4.9,5.1,18,18,0,0,0-1.8,8.4c0,4.8,1.2,8.6,3.7,11.2a12.2,12.2,0,0,0,9.4,4A14.6,14.6,0,0,0,1253.6,242.9Z"/><path class="cls-2" d="M1294.3,208a16.2,16.2,0,0,1,8.1-1.9v9.6H1300c-3.6,0-6.4,1-8.3,2.8s-2.8,5.1-2.8,9.7V252h-9.4V206.8h9.4v6.6A14.7,14.7,0,0,1,1294.3,208Z"/><path class="cls-2" d="M1375.3,208.3a15.9,15.9,0,0,1,6.6,6.5,21.4,21.4,0,0,1,2.4,10.5V252h-9.2V226.7c0-4-1.1-7.1-3.1-9.3a11,11,0,0,0-8.3-3.2,11.1,11.1,0,0,0-8.3,3.2c-2,2.2-3.1,5.3-3.1,9.3V252h-9.2V226.7c0-4-1-7.1-3.1-9.3a10.8,10.8,0,0,0-8.2-3.2,11.4,11.4,0,0,0-8.4,3.2q-3,3.3-3,9.3V252H1311V206.8h9.4V212a15.2,15.2,0,0,1,5.8-4.4,18.6,18.6,0,0,1,7.5-1.5,19.3,19.3,0,0,1,9.7,2.3,16.1,16.1,0,0,1,6.6,6.6,14.9,14.9,0,0,1,6.4-6.5,19,19,0,0,1,9.3-2.4A20.3,20.3,0,0,1,1375.3,208.3Z"/><path class="cls-2" d="M1395.9,217.1a20.7,20.7,0,0,1,7.7-8.1,20.4,20.4,0,0,1,10.8-2.9,19.4,19.4,0,0,1,9.3,2.1,18.5,18.5,0,0,1,6.4,5.2v-6.6h9.4V252h-9.4v-6.7a19.2,19.2,0,0,1-6.5,5.3,20.2,20.2,0,0,1-9.3,2.1,19.9,19.9,0,0,1-10.7-3,22,22,0,0,1-7.7-8.3,25.8,25.8,0,0,1-2.8-12.2A25.1,25.1,0,0,1,1395.9,217.1Zm32.2,4.1a12.6,12.6,0,0,0-5-5.2,13.2,13.2,0,0,0-6.7-1.8,13.9,13.9,0,0,0-6.7,1.7,13.4,13.4,0,0,0-5.1,5.2,16.2,16.2,0,0,0-1.9,8.1,16.8,16.8,0,0,0,1.9,8.2,14.7,14.7,0,0,0,5.1,5.4,13.4,13.4,0,0,0,13.4,0,12.8,12.8,0,0,0,5-5.3,17.6,17.6,0,0,0,0-16.3Zm-1.8-26.5-18.1,8.9v-6.9l18.1-10Z"/><path class="cls-2" d="M1462.7,214.4v25a4.8,4.8,0,0,0,1.2,3.7,6.1,6.1,0,0,0,4.1,1.1h5.7V252h-7.4c-4.2,0-7.4-1-9.7-3s-3.3-5.1-3.3-9.6v-25H1448v-7.6h5.3V195.6h9.4v11.2h11v7.6Z"/><path class="cls-2" d="M1482.8,199.1a6.1,6.1,0,0,1-1.7-4.3,5.7,5.7,0,0,1,1.7-4.2,5.8,5.8,0,0,1,4.3-1.8,5.4,5.4,0,0,1,4.1,1.8,5.4,5.4,0,0,1,1.8,4.2,5.8,5.8,0,0,1-1.8,4.3,5.7,5.7,0,0,1-4.1,1.7A6.1,6.1,0,0,1,1482.8,199.1Zm8.9,7.7V252h-9.4V206.8Z"/><path class="cls-2" d="M1503.7,217.1a20.6,20.6,0,0,1,7.8-8.2,22.8,22.8,0,0,1,11.5-2.8c5.4,0,10,1.3,13.6,3.9a19.2,19.2,0,0,1,7.2,11.1h-10.1a10.6,10.6,0,0,0-3.9-5.3,12.1,12.1,0,0,0-6.8-1.9,11.6,11.6,0,0,0-9.2,4.1c-2.2,2.7-3.4,6.5-3.4,11.4s1.2,8.6,3.4,11.4a11.6,11.6,0,0,0,9.2,4.1c5.4,0,9-2.4,10.7-7.2h10.1a20.3,20.3,0,0,1-7.4,11c-3.6,2.7-8.1,4-13.4,4a21.9,21.9,0,0,1-11.5-2.9,20.6,20.6,0,0,1-7.8-8.2,27.3,27.3,0,0,1,0-24.5Z"/><path class="cls-2" d="M1552.9,217.1a21.2,21.2,0,0,1,27.8-8.9,19.1,19.1,0,0,1,6.3,5.2v-6.6h9.5V252H1587v-6.7a18.2,18.2,0,0,1-6.5,5.3,21.1,21.1,0,0,1-20-.9,21.8,21.8,0,0,1-7.6-8.3,25.9,25.9,0,0,1-2.9-12.2A25.2,25.2,0,0,1,1552.9,217.1Zm32.2,4.1a13.9,13.9,0,0,0-5-5.2,13.6,13.6,0,0,0-6.8-1.8,14.2,14.2,0,0,0-6.7,1.7,12.6,12.6,0,0,0-5,5.2,16.2,16.2,0,0,0-2,8.1,16.9,16.9,0,0,0,2,8.2,13.7,13.7,0,0,0,5,5.4,13.6,13.6,0,0,0,13.5,0,14.2,14.2,0,0,0,5-5.3,18.4,18.4,0,0,0,0-16.3Z"/></g></g></g></svg>