<svg xmlns="http://www.w3.org/2000/svg" viewBox="0 0 148.5 29.1"><defs><style>.cls-1,.cls-2{fill:#e2e2e2;}.cls-1{fill-rule:evenodd;}</style></defs><g id="Capa_2" data-name="Capa 2"><g id="Design"><path class="cls-1" d="M14.8,0V20.9a.6.6,0,0,1-1.1,0V0H0V12.2l6.3,3.7V7.7a.6.6,0,1,1,1.1,0V25.4l6.3,3.7h1.1l6.3-3.9V7.7a.6.6,0,1,1,1.2,0v8.2l6.3-3.6V0Z"/><path class="cls-2" d="M39.6,21.2V8.9H34.7V6H48V8.9H43.1V21.2Z"/><path class="cls-2" d="M51.3,7.9a2.5,2.5,0,0,1-1.5-.5A1.8,1.8,0,0,1,49.2,6a1.8,1.8,0,0,1,.6-1.3,2.2,2.2,0,0,1,3,0A1.5,1.5,0,0,1,53.4,6a2,2,0,0,1-.6,1.4A2.3,2.3,0,0,1,51.3,7.9ZM49.6,21.2V9.6H53V21.2Z"/><path class="cls-2" d="M61.8,21.4a7.4,7.4,0,0,1-3.4-.8,5.8,5.8,0,0,1-2.3-2.1,6.5,6.5,0,0,1-.8-3.1,6.2,6.2,0,0,1,.8-3.1,6.9,6.9,0,0,1,2.3-2.2,7.4,7.4,0,0,1,3.4-.7,6.6,6.6,0,0,1,3.2.7,5,5,0,0,1,2,2.3l-2.6,1.4a3,3,0,0,0-1.2-1.3,3.2,3.2,0,0,0-1.4-.3,4.1,4.1,0,0,0-1.6.3,3.2,3.2,0,0,0-1.1,1.2,2.9,2.9,0,0,0-.4,1.7,3.1,3.1,0,0,0,.4,1.7,2.3,2.3,0,0,0,1.1,1.1,2.9,2.9,0,0,0,1.6.4,2.3,2.3,0,0,0,1.4-.4A2.3,2.3,0,0,0,64.4,17L67,18.4a4.3,4.3,0,0,1-2,2.2A6.6,6.6,0,0,1,61.8,21.4Z"/><path class="cls-2" d="M74.4,21.4a6.7,6.7,0,0,1-3.3-.8,5.2,5.2,0,0,1-2.3-2.1,5.6,5.6,0,0,1-.9-3.1,5.4,5.4,0,0,1,.9-3.1,6.1,6.1,0,0,1,2.3-2.2,6.7,6.7,0,0,1,3.3-.7,7.2,7.2,0,0,1,3.3.7,6.6,6.6,0,0,1,2.2,2.2,5.4,5.4,0,0,1,.9,3.1,5.6,5.6,0,0,1-.9,3.1,5.6,5.6,0,0,1-2.2,2.1A7.3,7.3,0,0,1,74.4,21.4Zm0-2.8a2.8,2.8,0,0,0,1.5-.4,2.2,2.2,0,0,0,1-1.1,3.1,3.1,0,0,0,.4-1.7,2.9,2.9,0,0,0-.4-1.7,2.9,2.9,0,0,0-1-1.2l-1.5-.3a4.1,4.1,0,0,0-1.6.3,2.9,2.9,0,0,0-1,1.2,2.9,2.9,0,0,0-.4,1.7,3.1,3.1,0,0,0,.4,1.7,2.2,2.2,0,0,0,1,1.1A2.9,2.9,0,0,0,74.4,18.6Z"/><path class="cls-2" d="M83.3,21.2V6h2.9l6.4,10.8H91.1L97.4,6h2.9V21.2H97.1V11.1h.6l-5.1,8.5H91l-5.2-8.5h.8V21.2Z"/><path class="cls-2" d="M109.3,21.4a6.7,6.7,0,0,1-3.3-.8,5.8,5.8,0,0,1-2.3-2.1,5.5,5.5,0,0,1-.8-3.1,5.3,5.3,0,0,1,.8-3.1,6.9,6.9,0,0,1,2.3-2.2,6.7,6.7,0,0,1,3.3-.7,7.2,7.2,0,0,1,3.3.7,6.9,6.9,0,0,1,2.3,2.2,6.2,6.2,0,0,1,.8,3.1,6.5,6.5,0,0,1-.8,3.1,5.8,5.8,0,0,1-2.3,2.1A7.3,7.3,0,0,1,109.3,21.4Zm0-2.8a2.4,2.4,0,0,0,1.5-.4,2.3,2.3,0,0,0,1.1-1.1,4.3,4.3,0,0,0,.4-1.7,3.9,3.9,0,0,0-.4-1.7,3.2,3.2,0,0,0-1.1-1.2,3.9,3.9,0,0,0-3,0,3.2,3.2,0,0,0-1.1,1.2,2.9,2.9,0,0,0-.4,1.7,3.1,3.1,0,0,0,.4,1.7,2.3,2.3,0,0,0,1.1,1.1A2.4,2.4,0,0,0,109.3,18.6Z"/><path class="cls-2" d="M116.6,12.4V9.8h8.1v2.6Zm6.1,9a4.6,4.6,0,0,1-3.2-1.1,3.8,3.8,0,0,1-1.1-3.1V7h3.3V17.2a1.8,1.8,0,0,0,.4,1.1,1.4,1.4,0,0,0,1.1.4,2.3,2.3,0,0,0,1.4-.4l.9,2.4-1.3.5Z"/><path class="cls-2" d="M132.6,21.4a6.7,6.7,0,0,1-3.3-.8,5.2,5.2,0,0,1-2.3-2.1,5.6,5.6,0,0,1-.9-3.1,5.4,5.4,0,0,1,.9-3.1,6.1,6.1,0,0,1,2.3-2.2,6.7,6.7,0,0,1,3.3-.7,7.2,7.2,0,0,1,3.3.7,6.6,6.6,0,0,1,2.2,2.2,5.4,5.4,0,0,1,.9,3.1,5.6,5.6,0,0,1-.9,3.1,5.6,5.6,0,0,1-2.2,2.1A7.3,7.3,0,0,1,132.6,21.4Zm0-2.8a2.8,2.8,0,0,0,1.5-.4,2.9,2.9,0,0,0,1.1-1.1,4.3,4.3,0,0,0,.3-1.7,4,4,0,0,0-.3-1.7,4.3,4.3,0,0,0-1.1-1.2l-1.5-.3a3.3,3.3,0,0,0-1.5.3,2.5,2.5,0,0,0-1.1,1.2,2.9,2.9,0,0,0-.4,1.7,3.1,3.1,0,0,0,.4,1.7,2,2,0,0,0,1.1,1.1A2.4,2.4,0,0,0,132.6,18.6Z"/><path class="cls-2" d="M141.2,21.2V9.6h3.3v3.2l-.5-.9a3.9,3.9,0,0,1,1.7-1.9,5.8,5.8,0,0,1,2.8-.6v3.1h-.8a2.7,2.7,0,0,0-2.2.8,3,3,0,0,0-.9,2.4v5.5Z"/></g></g></svg>