<svg xmlns="http://www.w3.org/2000/svg" viewBox="0 0 118.3 39.4"><defs><style>.cls-1{fill:#e2e2e2;}</style></defs><g id="Capa_2" data-name="Capa 2"><g id="Design"><path class="cls-1" d="M55.3,7.6H51.2V4.9H62.6V7.6H58.5V18.5H55.3Z"/><path class="cls-1" d="M64.7,7.6l-.6-.3-.3-.6a1.5,1.5,0,0,1-.1-.7,1.6,1.6,0,0,1,.4-1.2,2.1,2.1,0,0,1,1.3-.5H66l.5.2.4.4a.8.8,0,0,1,.2.4,1.3,1.3,0,0,1,.1.6,2.1,2.1,0,0,1-.5,1.3,1.8,1.8,0,0,1-1.3.4Zm2.2,1v9.9H64V8.6Z"/><path class="cls-1" d="M74.1,8.5l1,.4.9.5a3.4,3.4,0,0,1,.6.6l.5.5.3.5c.1.2.1.4.2.4v.3h.1L75,12.8a.4.4,0,0,1-.1-.3v-.2c0-.1-.1-.2-.2-.3l-.2-.3-.4-.3-.5-.2h-.6a2.4,2.4,0,0,0-1.7.6,2.5,2.5,0,0,0-.7,1.8,2.1,2.1,0,0,0,.8,1.6,2.3,2.3,0,0,0,1.7.5h1l.3-.2.2-.3a.2.2,0,0,0,.2-.2c.1-.1.1-.2.2-.2v-.2c0-.1.1-.1.1-.2l2.7,1a4.1,4.1,0,0,1-1.9,2.4,4.9,4.9,0,0,1-3.3.9,5.2,5.2,0,0,1-2.5-.7,4.7,4.7,0,0,1-1.8-1.9,4.5,4.5,0,0,1-.5-2.6,4.5,4.5,0,0,1,1.5-3.5,5.2,5.2,0,0,1,3.6-1.3Z"/><path class="cls-1" d="M86.6,9.2A4.7,4.7,0,0,1,88.5,11a5.3,5.3,0,0,1,.6,2.6,5.3,5.3,0,0,1-.6,2.6A4.7,4.7,0,0,1,86.6,18a6,6,0,0,1-2.7.6,5,5,0,0,1-3.4-1.1,4.6,4.6,0,0,1-1.8-3.9,4.8,4.8,0,0,1,1.2-3.3,5,5,0,0,1,4-1.7A6,6,0,0,1,86.6,9.2Zm-1.3,6.4a2,2,0,0,0,.8-.8,2.7,2.7,0,0,0,.3-1.2,2.4,2.4,0,0,0-.6-1.7,2.2,2.2,0,0,0-1.7-.7,2.1,2.1,0,0,0-1.7.7,2.1,2.1,0,0,0-.7,1.7,1.5,1.5,0,0,0,.2.9,1.8,1.8,0,0,0,.5.8l.7.4a1.6,1.6,0,0,0,1,.2A2.7,2.7,0,0,0,85.3,15.6Z"/><path class="cls-1" d="M97.6,17.8a4.7,4.7,0,0,1-3.2.8,4.8,4.8,0,0,1-1.8-.3,3.2,3.2,0,0,1-1.3-.7l-.7-.7-.4-.6v-.2l2.8-1.2h0v.2l.3.3.4.3h2c.1-.1.1-.2.1-.4v-.2c-.1-.1-.1-.2-.2-.2H94.1l-1.4-.4-1.2-.5a3.9,3.9,0,0,1-.8-1,4.6,4.6,0,0,1-.2-1.4,2.5,2.5,0,0,1,.6-1.6,4,4,0,0,1,1.5-1,3.6,3.6,0,0,1,2.1-.3h1.7l.5.2.4.2.3.2.3.2.3.3.3.3.2.3L96,11.9h0c0-.1-.1-.1-.1-.2s-.1-.1-.2-.2l-.4-.2h-.6c-.8,0-1.2.2-1.2.5a.4.4,0,0,0,.1.3l.3.2h1l1.4.3c1.9.6,2.7,1.5,2.7,2.9A2.9,2.9,0,0,1,97.6,17.8Z"/><path class="cls-1" d="M101.1,11.1H99.2V8.6h1.9v-2l2.8-1.8V8.5h2.5v2.6h-2.5v3.2a2.5,2.5,0,0,0,.1,1,.9.9,0,0,0,.6.4h.8l.6-.4a1.7,1.7,0,0,0,.2.5l.5.8.6.9a1.6,1.6,0,0,1-1.1.8,3.4,3.4,0,0,1-1.8.4,3.4,3.4,0,0,1-2-.6,3,3,0,0,1-1.3-2.7Z"/><path class="cls-1" d="M118.3,18.4h-2.9v-1c-.1.3-.6.6-1.2.9a6.9,6.9,0,0,1-2,.3,4.4,4.4,0,0,1-3.4-1.4,4.8,4.8,0,0,1-1.3-3.6,5,5,0,0,1,.7-2.7A5.8,5.8,0,0,1,110.1,9a5.5,5.5,0,0,1,2.5-.7h1.1l1,.2a3.5,3.5,0,0,1,1.1.3l.9.7a3.4,3.4,0,0,1,.8.9l.6,1.4a11.1,11.1,0,0,1,.2,1.9Zm-3.5-3,.5-.8a3.6,3.6,0,0,0,.2-1,3,3,0,0,0-.2-1,5.6,5.6,0,0,0-.5-.8l-.8-.5-1-.2a2.4,2.4,0,0,0-2.5,2.5,3.6,3.6,0,0,0,.2,1,3.5,3.5,0,0,0,.5.8l.8.5,1,.2,1-.2Z"/><path class="cls-1" d="M58.4,23.7H54.3V21.1H65.6v2.6H61.5V34.6H58.4Z"/><path class="cls-1" d="M63.6,29.3a8.8,8.8,0,0,1,.2-1.7,6.7,6.7,0,0,1,.6-1.2,1.8,1.8,0,0,1,.9-.8,2.4,2.4,0,0,1,1-.5l1.1-.3h2.8v2.9H68.5l-1.1.2a.9.9,0,0,0-.6.4l-.3.6v5.6H63.6Z"/><path class="cls-1" d="M81.8,34.5H78.9v-.9a2.3,2.3,0,0,1-1.2.8,5,5,0,0,1-5.4-1A5.2,5.2,0,0,1,71,29.8a5,5,0,0,1,.7-2.7,4.4,4.4,0,0,1,1.9-1.9,4.5,4.5,0,0,1,2.5-.7h1.1l1,.2,1.1.4a2.4,2.4,0,0,1,.9.6,3.9,3.9,0,0,1,.8,1,3.8,3.8,0,0,1,.5,1.4,4.8,4.8,0,0,1,.3,1.8Zm-3.6-3a2.4,2.4,0,0,0,.6-.8,3.1,3.1,0,0,0,.1-1,3.4,3.4,0,0,0-.1-1l-.6-.8-.7-.5-1-.2a2.5,2.5,0,0,0-1.8.7,2.4,2.4,0,0,0-.7,1.8,1.6,1.6,0,0,0,.2,1,2.2,2.2,0,0,0,.5.8l.8.5,1,.2,1-.2A1.8,1.8,0,0,0,78.2,31.5Z"/><path class="cls-1" d="M85.1,34.6l-3.2-9.8H85l2.1,6.8,2-6.8h3.1L89,34.6Z"/><path class="cls-1" d="M93.1,26.4a5.1,5.1,0,0,1,4-1.6,4.4,4.4,0,0,1,1.6.2l1.5.7a5.8,5.8,0,0,1,1,1.2,3.5,3.5,0,0,1,.7,1.5,6.7,6.7,0,0,1,.1,2H95a1.9,1.9,0,0,0,.2.7c.2.2.3.4.5.5l.7.3h1.4l.6-.2c.1-.2.3-.3.4-.4s.2-.2.2-.3a.1.1,0,0,0,.1-.1l2.5,1.3A3.9,3.9,0,0,1,99.8,34a5.3,5.3,0,0,1-2.8.7,5.2,5.2,0,0,1-3.2-1.1A4.8,4.8,0,0,1,92,29.7,5.2,5.2,0,0,1,93.1,26.4Zm6,1.7a1.1,1.1,0,0,0-.6-.7,3.3,3.3,0,0,0-1.5-.3c-1,0-1.7.3-1.9,1Z"/><path class="cls-1" d="M106.1,21V34.6h-2.9V21Z"/><path class="cls-1" d="M114.4,34a5.3,5.3,0,0,1-3.2.8l-1.8-.4-1.3-.6-.7-.8-.4-.6v-.2l2.8-1.2h0v.3l.3.3a.5.5,0,0,0,.4.2l.8.2h.8l.4-.2a.4.4,0,0,0,.1-.3v-.3l-.2-.2h-1.5l-1.4-.3-1.2-.6a2.4,2.4,0,0,1-.8-.9,5.9,5.9,0,0,1-.2-1.4,2.3,2.3,0,0,1,.6-1.6,4.2,4.2,0,0,1,1.5-1.1,6.6,6.6,0,0,1,2.1-.3h2.2l.4.2.3.2.4.3c0,.1.1.1.2.2l.3.3a.5.5,0,0,1,.2.4L112.8,28h-.1l-.2-.2-.4-.2h-.6c-.8,0-1.2.1-1.2.4a.4.4,0,0,0,.1.3c.1.1.1.2.3.2h1l1.4.3c1.9.5,2.7,1.5,2.7,2.8A3,3,0,0,1,114.4,34Z"/><path class="cls-1" d="M33.7,9.2A21.1,21.1,0,0,0,37.2,9a15.1,15.1,0,0,0,7.9-4.4,18.9,18.9,0,0,0-5.3-3.1,27,27,0,0,1-1.5,2.9,20.3,20.3,0,0,1-5,4.8Z"/><path class="cls-1" d="M38.5,1a14.7,14.7,0,0,1-3.6,5.3,15.1,15.1,0,0,1-3.3,2.5l-.5.3h0a3.7,3.7,0,0,1-1.4.4h-.2l.6-.7.2-.3a15.6,15.6,0,0,0,2.3-6.3A17.9,17.9,0,0,0,32.8,0,21.3,21.3,0,0,1,38.5,1Z"/><path class="cls-1" d="M24,11.9a2.2,2.2,0,0,0,.1-.8v-1a1.4,1.4,0,0,0,0-.9,11.9,11.9,0,0,0-1.9-6.8l2.9-1.3L26.2.8A19.3,19.3,0,0,1,31.1,0V.6a14.4,14.4,0,0,1-2.4,7.8l-.2.2A9.8,9.8,0,0,1,24,11.9Z"/><path class="cls-1" d="M16.1,34.8h0l.3.4Z"/><path class="cls-1" d="M43.8,32.6c-6.9,8.5-20.1,8.8-27.4,2.6C7.1,27.1,9.8,9.7,20.7,3.3c1.7,3.7,1.9,9.1,1.2,10.4C11.4,27,27.6,37.9,38,27.5a.8.8,0,0,1,.9-.1l5.5,2.5a.8.8,0,0,1,.4,1.1Z"/><path class="cls-1" d="M23.2,0c-3.8,1.4-8.7,5.2-10.8,9.2H7.3c-4,0-7.3-4-7.3-9V0H0A53.4,53.4,0,0,0,23.2,0Z"/></g></g></svg>