<svg xmlns="http://www.w3.org/2000/svg" viewBox="0 0 118.8 39.8"><defs><style>.cls-1{font-size:18.25px;font-family:Claris_Sans, Claris Sans;}.cls-1,.cls-9{fill:#e2e2e2;}.cls-2{letter-spacing:-0.04em;}.cls-3{letter-spacing:-0.02em;}.cls-4{letter-spacing:-0.02em;}.cls-5{letter-spacing:-0.03em;}.cls-6{letter-spacing:-0.17em;}.cls-7{letter-spacing:-0.06em;}.cls-8{letter-spacing:-0.07em;}</style></defs><g id="Capa_2" data-name="Capa 2"><g id="Design"><text class="cls-1" transform="translate(50.5 18.5)">T<tspan class="cls-2" x="12.5" y="0">i</tspan><tspan class="cls-3" x="16.5" y="0">c</tspan><tspan x="27.4" y="0">o</tspan><tspan class="cls-4" x="39.2" y="0">s</tspan><tspan class="cls-5" x="48.4" y="0">t</tspan><tspan x="56.2" y="0">a</tspan></text><text class="cls-1" transform="translate(53.5 34.6)"><tspan class="cls-6">T</tspan><tspan class="cls-2" x="9.5" y="0">r</tspan><tspan class="cls-7" x="16.6" y="0">a</tspan><tspan class="cls-8" x="27.6" y="0">v</tspan><tspan x="37.9" y="0">els</tspan></text><path class="cls-9" d="M33.7,9.2A21.1,21.1,0,0,0,37.2,9a15.1,15.1,0,0,0,7.9-4.4,18.9,18.9,0,0,0-5.3-3.1,27,27,0,0,1-1.5,2.9,20.3,20.3,0,0,1-5,4.8Z"/><path class="cls-9" d="M38.5,1a14.7,14.7,0,0,1-3.6,5.3,15.1,15.1,0,0,1-3.3,2.5l-.5.3h0a3.7,3.7,0,0,1-1.4.4h-.2l.6-.7.2-.3a15.6,15.6,0,0,0,2.3-6.3A17.9,17.9,0,0,0,32.8,0,21.3,21.3,0,0,1,38.5,1Z"/><path class="cls-9" d="M24,11.9a2.2,2.2,0,0,0,.1-.8v-1a1.4,1.4,0,0,0,0-.9,11.9,11.9,0,0,0-1.9-6.8l2.9-1.3L26.2.8A19.3,19.3,0,0,1,31.1,0V.6a14.4,14.4,0,0,1-2.4,7.8l-.2.2A9.8,9.8,0,0,1,24,11.9Z"/><path class="cls-9" d="M16.1,34.8h0l.3.4Z"/><path class="cls-9" d="M43.8,32.6c-6.9,8.5-20.1,8.8-27.4,2.6C7.1,27.1,9.8,9.7,20.7,3.3c1.7,3.7,1.9,9.1,1.2,10.4C11.4,27,27.6,37.9,38,27.5a.8.8,0,0,1,.9-.1l5.5,2.5a.8.8,0,0,1,.4,1.1Z"/><path class="cls-9" d="M23.2,0c-3.8,1.4-8.7,5.2-10.8,9.2H7.3c-4,0-7.3-4-7.3-9V0H0A53.4,53.4,0,0,0,23.2,0Z"/></g></g></svg>